<svg width="8" height="6" viewBox="0 0 8 6" fill="none" xmlns="http://www.w3.org/2000/svg">
<path id="arrow" d="M0.732 1.04657C0.694494 1.01113 0.650374 0.983417 0.602159 0.965025C0.553944 0.946634 0.502579 0.937918 0.450996 0.939378C0.399413 0.940837 0.348623 0.952442 0.301525 0.97353C0.254427 0.994618 0.211943 1.02478 0.176501 1.06228C0.141058 1.09979 0.113349 1.14391 0.0949576 1.19212C0.0765658 1.24034 0.0678506 1.2917 0.0693098 1.34329C0.070769 1.39487 0.082374 1.44566 0.103462 1.49276C0.12455 1.53986 0.154708 1.58234 0.192215 1.61778L3.72793 4.95707C3.80087 5.02603 3.89744 5.06445 3.99782 5.06445C4.0982 5.06445 4.19477 5.02603 4.26771 4.95707L7.80382 1.61778C7.84215 1.58257 7.8731 1.5401 7.89487 1.49283C7.91665 1.44556 7.92881 1.39443 7.93066 1.34242C7.93251 1.29041 7.924 1.23855 7.90564 1.18985C7.88727 1.14115 7.85942 1.09659 7.82368 1.05875C7.78795 1.02091 7.74506 0.990544 7.69749 0.969422C7.64993 0.9483 7.59864 0.936839 7.5466 0.935706C7.49457 0.934572 7.44283 0.943789 7.39439 0.962821C7.34595 0.981852 7.30178 1.01032 7.26443 1.04657L3.99782 4.13128L0.732 1.04657Z" fill="#675C53"/>
</svg>
