<svg width="17" height="16" viewBox="0 0 17 16" fill="none" xmlns="http://www.w3.org/2000/svg">
<g id="icono_buscador">
<path id="buscador" d="M2.5 14L6.5 10M14.5 6.66667C14.5 7.2795 14.3793 7.88634 14.1448 8.45252C13.9102 9.01871 13.5665 9.53316 13.1332 9.9665C12.6998 10.3998 12.1854 10.7436 11.6192 10.9781C11.053 11.2126 10.4462 11.3333 9.83333 11.3333C9.2205 11.3333 8.61366 11.2126 8.04748 10.9781C7.48129 10.7436 6.96684 10.3998 6.5335 9.9665C6.10016 9.53316 5.75642 9.01871 5.52189 8.45252C5.28737 7.88634 5.16667 7.2795 5.16667 6.66667C5.16667 6.05383 5.28737 5.447 5.52189 4.88081C5.75642 4.31462 6.10016 3.80018 6.5335 3.36683C6.96684 2.93349 7.48129 2.58975 8.04748 2.35523C8.61366 2.12071 9.2205 2 9.83333 2C10.4462 2 11.053 2.12071 11.6192 2.35523C12.1854 2.58975 12.6998 2.93349 13.1332 3.36683C13.5665 3.80018 13.9102 4.31462 14.1448 4.88081C14.3793 5.447 14.5 6.05383 14.5 6.66667Z" stroke="#787876" stroke-width="1.08333" stroke-linecap="round" stroke-linejoin="round"/>
</g>
</svg>
