<svg width="56" height="18" viewBox="0 0 56 18" fill="none" xmlns="http://www.w3.org/2000/svg">
<g id="logo_Bluetab" clip-path="url(#clip0_571_1103)">
<g id="Capa 2">
<g id="artwork">
<g id="bluetab_an_IBM_Company">
<path id="an IBM Company" d="M9.34947 16.2598C9.12094 16.2598 9.02784 16.1202 9.00414 15.9339H8.98467C8.90003 16.1786 8.68588 16.3064 8.40656 16.3064C7.98335 16.3064 7.73535 16.0736 7.73535 15.7012C7.73535 15.3288 8.00705 15.1155 8.58939 15.1155H8.98467V14.9174C8.98467 14.6338 8.82977 14.4789 8.51152 14.4789C8.40749 14.4768 8.30491 14.5036 8.21522 14.5563C8.12554 14.6091 8.0523 14.6857 8.00367 14.7777L7.81745 14.6034C7.92664 14.3901 8.16703 14.2115 8.5276 14.2115C9.00921 14.2115 9.29615 14.4654 9.29615 14.8886V15.989H9.52468V16.2607L9.34947 16.2598ZM8.98467 15.6783V15.3482H8.57331C8.22035 15.3482 8.06122 15.4566 8.06122 15.6512V15.7359C8.06122 15.9339 8.21612 16.0465 8.45735 16.0465C8.76375 16.0431 8.98467 15.884 8.98467 15.6783ZM9.98768 16.2598V14.258H10.2983V14.5839H10.3135C10.3555 14.4691 10.4334 14.371 10.5355 14.3039C10.6376 14.2368 10.7587 14.2044 10.8806 14.2115C11.2912 14.2115 11.5519 14.4908 11.5519 14.9733V16.2598H11.2412V15.03C11.2412 14.6728 11.0863 14.4908 10.7875 14.4908C10.5387 14.4908 10.2983 14.6152 10.2983 14.8708V16.2598H9.98768ZM12.8943 16.2598V15.9881H13.2743V13.823H12.8943V13.5513H13.9811V13.823H13.6002V15.9881H13.9811V16.2598H12.8943ZM14.5939 13.5513H15.7078C16.1538 13.5513 16.4298 13.8272 16.4298 14.2504C16.4298 14.6533 16.1699 14.7972 15.9913 14.8243V14.848C16.1852 14.859 16.5229 15.0266 16.5229 15.476C16.5229 15.9255 16.2241 16.2598 15.8246 16.2598H14.5922L14.5939 13.5513ZM14.9181 14.7278H15.6672C15.9211 14.7278 16.0785 14.5915 16.0785 14.3511V14.2191C16.0785 13.9787 15.9236 13.8433 15.6672 13.8433H14.9181V14.7278ZM14.9181 15.9771H15.7213C16.0006 15.9771 16.1716 15.8298 16.1716 15.5539V15.4219C16.1716 15.1502 16.0023 15.0029 15.7213 15.0029H14.9181V15.9771ZM17.1459 13.5555H17.5801L18.3562 15.0147H18.3757L19.1561 13.5555H19.5793V16.264H19.2611V13.9787H19.2416L19.0131 14.4324L18.3647 15.6123L17.7163 14.4324L17.4878 13.9787H17.4683V16.2598H17.1501L17.1459 13.5555ZM20.9607 14.9259C20.9607 14.0219 21.3678 13.509 22.0509 13.509C22.2483 13.4993 22.4438 13.5511 22.6106 13.6572C22.7773 13.7633 22.9071 13.9185 22.9819 14.1014L22.7187 14.2606C22.6716 14.1221 22.5813 14.0025 22.461 13.9193C22.3408 13.8361 22.197 13.7937 22.0509 13.7984C21.5853 13.7984 21.3094 14.1675 21.3094 14.7219V15.1256C21.3094 15.6809 21.5853 16.0186 22.0509 16.0186C22.2035 16.0231 22.3534 15.9777 22.478 15.8895C22.6026 15.8012 22.6951 15.6748 22.7415 15.5294L23.0014 15.6919C22.9245 15.8792 22.7923 16.0386 22.6225 16.1489C22.4527 16.2591 22.2532 16.3149 22.0509 16.3089C21.3678 16.3064 20.9607 15.8281 20.9607 14.9216V14.9259ZM23.3467 15.2644C23.3467 14.6279 23.7158 14.2166 24.2515 14.2166C24.7873 14.2166 25.1555 14.6279 25.1555 15.2644C25.1555 15.9009 24.7865 16.3115 24.2515 16.3115C23.7166 16.3115 23.3467 15.895 23.3467 15.2593V15.2644ZM24.822 15.4049V15.118C24.822 14.6948 24.585 14.4891 24.2515 14.4891C23.9181 14.4891 23.6811 14.6948 23.6811 15.118V15.4049C23.6811 15.8281 23.9172 16.0338 24.2515 16.0338C24.5859 16.0338 24.822 15.8281 24.822 15.4049ZM25.6871 16.2624V14.258H25.9977V14.5839H26.0129C26.1027 14.3782 26.2423 14.2115 26.5521 14.2115C26.6846 14.2044 26.8158 14.2401 26.9263 14.3135C27.0369 14.3868 27.1208 14.4938 27.1658 14.6186H27.17C27.2436 14.4011 27.4375 14.2115 27.7794 14.2115C28.1866 14.2115 28.4312 14.4908 28.4312 14.9733V16.2598H28.1205V15.03C28.1205 14.677 27.9851 14.4908 27.6821 14.4908C27.4375 14.4908 27.2123 14.6152 27.2123 14.8708V16.2598H26.9025V15.03C26.9025 14.6728 26.7663 14.4908 26.4717 14.4908C26.2271 14.4908 25.9943 14.6152 25.9943 14.8708V16.2598L25.6871 16.2624ZM29.0948 14.2606H29.4046V14.5864H29.4206C29.5247 14.3325 29.7304 14.214 30.0064 14.214C30.5066 14.214 30.8215 14.6211 30.8215 15.2619C30.8215 15.9026 30.5066 16.3089 30.0064 16.3089C29.8822 16.3149 29.7593 16.2823 29.6544 16.2156C29.5495 16.149 29.4679 16.0514 29.4206 15.9365H29.4046V17.0368H29.0948V14.2606ZM30.4871 15.432V15.0935C30.4871 14.7363 30.2704 14.4959 29.9209 14.4959C29.6373 14.4959 29.4046 14.6584 29.4046 14.8802V15.625C29.4046 15.8849 29.6373 16.0321 29.9209 16.0321C30.2704 16.0271 30.4871 15.7867 30.4871 15.4295V15.432ZM32.8199 16.2624C32.5905 16.2624 32.4974 16.1227 32.4745 15.9365H32.4551C32.3704 16.1811 32.1563 16.3089 31.8769 16.3089C31.4537 16.3089 31.2057 16.0761 31.2057 15.7037C31.2057 15.3313 31.4766 15.118 32.0589 15.118H32.4551V14.9199C32.4551 14.6364 32.2993 14.4815 31.9811 14.4815C31.877 14.479 31.7743 14.5057 31.6845 14.5585C31.5948 14.6113 31.5216 14.6881 31.4732 14.7803L31.287 14.6059C31.3953 14.3926 31.6357 14.214 31.9971 14.214C32.4779 14.214 32.7657 14.4679 32.7657 14.8912V15.9915H32.9942V16.2632L32.8199 16.2624ZM32.4551 15.6809V15.3508H32.0437C31.6907 15.3508 31.5316 15.4591 31.5316 15.6538V15.7384C31.5316 15.9365 31.6865 16.0491 31.9269 16.0491C32.2341 16.0431 32.4551 15.884 32.4551 15.6783V15.6809ZM33.4564 16.2624V14.258H33.767V14.5839H33.7822C33.8239 14.4691 33.9016 14.3709 34.0036 14.3038C34.1056 14.2367 34.2266 14.2043 34.3485 14.2115C34.7599 14.2115 35.0197 14.4908 35.0197 14.9733V16.2598H34.7099V15.03C34.7099 14.6728 34.5542 14.4908 34.2554 14.4908C34.0074 14.4908 33.767 14.6152 33.767 14.8708V16.2598L33.4564 16.2624ZM36.8827 14.2606H37.1891L36.2927 16.7287C36.2081 16.9691 36.1234 17.0385 35.8272 17.0385H35.6681V16.7668H35.9821L36.1336 16.3436L35.3845 14.264H35.6952L36.1768 15.6258L36.2699 15.9517H36.2893L36.3977 15.6258L36.8827 14.2606Z" fill="black"/>
<path id="/bluetab" d="M24.5098 2.8245V7.35285C24.5098 7.93265 24.4209 8.19335 24.327 8.41003C24.0874 8.93735 23.638 9.24121 23.026 9.28861C22.4132 9.24121 21.9612 8.95682 21.7217 8.43034C21.6269 8.21366 21.538 7.93265 21.538 7.37317V3.87914C21.538 3.87914 21.538 3.87914 21.538 3.87322C21.538 3.7355 21.5109 3.59913 21.4582 3.47189C21.4055 3.34466 21.3282 3.22905 21.2308 3.13167C21.1335 3.03428 21.0179 2.95704 20.8906 2.90433C20.7634 2.85163 20.627 2.8245 20.4893 2.8245H19.4118V6.92372C19.4118 6.98297 19.4118 7.04137 19.4118 7.09977C19.4171 7.62635 19.4928 8.14985 19.6369 8.65634C19.7596 9.10428 19.9763 9.52094 20.2726 9.87857C20.3514 9.96888 20.4362 10.0537 20.5265 10.1325C21.2058 10.7646 22.0993 11.1161 23.0273 11.1161C23.9552 11.1161 24.8487 10.7646 25.528 10.1325C25.6185 10.0539 25.7034 9.96909 25.782 9.87857C26.0756 9.52052 26.2891 9.10378 26.4083 8.65634C26.5523 8.14986 26.6275 7.62631 26.6318 7.09977C26.6318 7.04137 26.6318 6.98297 26.6318 6.92372V3.8766C26.6318 3.59861 26.5214 3.332 26.3249 3.13535C26.1284 2.9387 25.8619 2.82811 25.5839 2.82789L24.5098 2.8245ZM42.7781 9.18704C42.5862 9.03751 42.4903 8.7943 42.4903 8.45743C42.4813 8.28836 42.5203 8.12019 42.6026 7.97226C42.685 7.82433 42.8074 7.70264 42.9558 7.62117C43.1386 7.51565 43.4405 7.42593 43.8615 7.35201L44.3092 7.26736C44.489 7.23742 44.666 7.1924 44.8383 7.13278C44.9728 7.08184 45.1018 7.01747 45.2234 6.94065V7.67703C45.2093 8.33555 45.0211 8.78923 44.6588 9.03807C44.3102 9.28247 43.8945 9.41287 43.4688 9.41135C43.2195 9.41861 42.9755 9.33935 42.7781 9.18704ZM41.07 3.69293C40.7201 4.14436 40.5226 4.72049 40.4775 5.42132H42.5004C42.5326 5.15402 42.6355 4.90014 42.7984 4.68578C43.0072 4.44032 43.3627 4.31759 43.8649 4.31759C44.3118 4.31759 44.6504 4.38022 44.8806 4.50549C45.1108 4.63076 45.2265 4.85648 45.2276 5.18263C45.2276 5.45236 45.0769 5.64985 44.7756 5.77513C44.5057 5.87224 44.2243 5.93398 43.9385 5.9588L43.2191 6.04344C40.4978 6.44803 40.4081 8.05538 40.4081 8.69866C40.4081 10.4948 42.6046 11.1042 43.7481 11.1042C44.505 11.1035 45.249 10.9076 45.9081 10.5354C46.3261 10.2534 46.6711 9.87613 46.9147 9.43464C47.1582 8.99315 47.2934 8.5001 47.309 7.99613V5.1183C47.309 4.15226 46.9667 3.49515 46.2822 3.14699C45.5978 2.79883 44.8148 2.62475 43.9334 2.62475C42.5792 2.62475 41.6236 2.97799 41.0666 3.68447M30.1258 4.79836C30.422 4.49308 30.8393 4.34044 31.3776 4.34044C31.8313 4.32595 32.2743 4.48004 32.621 4.77296C32.9556 5.06075 33.1419 5.48396 33.1797 6.04259H29.5671C29.6433 5.52063 29.8295 5.10702 30.1258 4.80174M28.5091 3.72425C27.7727 4.46515 27.4045 5.53023 27.4045 6.91948C27.4045 8.40185 27.8125 9.47172 28.6285 10.1291C29.4246 10.78 30.4247 11.1295 31.453 11.116C32.7452 11.116 33.7507 10.7261 34.4696 9.94628C34.9306 9.45592 35.1896 8.9729 35.2466 8.49721H33.7231C33.685 8.49721 33.6477 8.49721 33.613 8.49721C33.4741 8.49699 33.3368 8.52719 33.2107 8.58568C33.0847 8.64417 32.973 8.72953 32.8834 8.83578C32.8204 8.91373 32.7495 8.98493 32.6718 9.04823C32.3733 9.29313 31.9854 9.41558 31.508 9.41558C31.1017 9.42767 30.7005 9.3231 30.3518 9.11425C29.8253 8.79092 29.546 8.22664 29.5138 7.42141H35.3541C35.3724 6.88999 35.3492 6.35795 35.2847 5.83014C35.201 5.23631 34.9827 4.66946 34.6465 4.17285C34.3066 3.65429 33.8259 3.24326 33.2609 2.98786C32.6661 2.73028 32.0232 2.60218 31.3751 2.61205C30.1997 2.61205 29.2438 2.98278 28.5074 3.72425M36.1887 0.661901V9.32755C36.1887 9.8275 36.3063 10.1977 36.5416 10.4381C36.9045 10.8167 37.5816 10.9885 38.5731 10.9535L39.5659 10.9163V9.34956C39.4973 9.35464 39.4279 9.35802 39.3568 9.36056C39.2857 9.3631 39.218 9.36056 39.1545 9.36056C38.7313 9.36056 38.4723 9.32078 38.3928 9.23952C38.3132 9.15827 38.2675 8.95428 38.2675 8.62502V4.39292H39.5693V3.94432C39.5692 3.6755 39.4657 3.41703 39.2802 3.22243C39.0948 3.02784 38.8416 2.91203 38.5731 2.89899H38.2675V1.70808C38.2672 1.57029 38.2397 1.43391 38.1866 1.30675C38.1336 1.17958 38.056 1.06412 37.9582 0.966965C37.8605 0.869808 37.7446 0.792858 37.6172 0.740513C37.4897 0.688168 37.3532 0.661455 37.2154 0.661901H36.1887ZM10.3339 8.70289C10.0146 8.23059 9.85487 7.63471 9.85487 6.91525C9.85487 6.30414 9.93218 5.80616 10.0868 5.42132C10.3859 4.69679 10.9343 4.3348 11.7322 4.33536C12.5222 4.33536 13.0631 4.70497 13.3548 5.44417C13.5089 5.83466 13.5862 6.32784 13.5867 6.92372C13.5867 7.66744 13.4296 8.26811 13.1153 8.72575C12.9728 8.94419 12.7763 9.1221 12.5448 9.24222C12.3133 9.36234 12.0547 9.4206 11.794 9.41135C11.14 9.41135 10.6533 9.17519 10.3339 8.70289ZM7.81754 0.0152356V6.7866C7.81754 6.8323 7.81246 6.87124 7.81246 6.92118C7.81246 8.40354 8.22043 9.47342 9.03638 10.1308C9.83371 10.7741 10.6336 11.1 11.6713 11.1143C12.6749 11.1132 13.6475 10.7658 14.4247 10.1308C15.2401 9.47342 15.6478 8.40354 15.6478 6.92118C15.6478 5.53136 15.2796 4.46628 14.5432 3.72594C13.8068 2.98561 12.8509 2.61572 11.6755 2.61628H11.6662C10.9823 2.61628 10.2273 2.95485 9.91412 3.4627V1.03856C9.90771 0.765068 9.7946 0.504928 9.59896 0.313716C9.40332 0.122504 9.14066 0.0153815 8.8671 0.0152356H7.81754ZM50.6853 8.70628C50.3659 8.23398 50.2065 7.6381 50.2071 6.91864C50.2071 6.30752 50.2844 5.80955 50.439 5.42471C50.7381 4.70017 51.2866 4.33819 52.0845 4.33875C52.8745 4.33875 53.415 4.70835 53.7062 5.44756C53.8614 5.83804 53.9387 6.33122 53.9381 6.9271C53.9381 7.67082 53.7812 8.2715 53.4675 8.72913C53.325 8.94751 53.1284 9.12538 52.8969 9.24549C52.6655 9.36561 52.4069 9.4239 52.1462 9.41473C51.4917 9.41473 51.0047 9.17858 50.6853 8.70628ZM48.1689 0.0152356V6.7866C48.1689 6.8323 48.1647 6.87124 48.1647 6.92118C48.1647 8.40354 48.5724 9.47342 49.3878 10.1308C50.1859 10.7741 50.9858 11.1 52.0227 11.1143C53.0263 11.1132 53.9988 10.7658 54.7761 10.1308C55.592 9.47342 56 8.40354 56 6.92118C56 5.53136 55.6318 4.46628 54.8954 3.72594C54.159 2.98561 53.2034 2.61572 52.0286 2.61628H52.0184C51.3345 2.61628 50.5795 2.95485 50.2655 3.4627V1.03856C50.2593 0.764998 50.1463 0.504733 49.9506 0.313475C49.7549 0.122217 49.4921 0.0151655 49.2185 0.0152356H48.1689ZM4.82459 0.00931062H4.81698C4.60381 0.00914681 4.39544 0.0726168 4.21856 0.191592C4.04168 0.310568 3.90434 0.479633 3.82413 0.677136L0 10.8426H1.34158C1.52845 10.8421 1.71196 10.7928 1.87392 10.6996C2.03588 10.6063 2.1707 10.4724 2.26502 10.3111L6.15601 0.00931062H4.82459ZM16.4798 0V10.8426H18.5764V1.0631C18.5762 0.785114 18.4656 0.518587 18.2689 0.322098C18.0723 0.125609 17.8057 0.0152355 17.5277 0.0152356C17.4807 0.0145786 17.434 0.00947725 17.388 0L16.4798 0Z" fill="url(#paint0_linear_571_1103)"/>
</g>
</g>
</g>
</g>
<defs>
<linearGradient id="paint0_linear_571_1103" x1="0" y1="5.55844" x2="56" y2="5.55844" gradientUnits="userSpaceOnUse">
<stop offset="0.22" stop-color="#212492"/>
<stop offset="0.33" stop-color="#25228F"/>
<stop offset="0.43" stop-color="#2F1A85"/>
<stop offset="0.44" stop-color="#311984"/>
<stop offset="0.49" stop-color="#49137F"/>
<stop offset="0.54" stop-color="#5C0E7A"/>
<stop offset="0.59" stop-color="#8E1E5D"/>
<stop offset="0.64" stop-color="#B52B46"/>
<stop offset="0.69" stop-color="#D13435"/>
<stop offset="0.73" stop-color="#E2392B"/>
<stop offset="0.75" stop-color="#E83B27"/>
<stop offset="0.79" stop-color="#E6401F"/>
<stop offset="0.91" stop-color="#E24D0D"/>
<stop offset="1" stop-color="#E05206"/>
</linearGradient>
<clipPath id="clip0_571_1103">
<rect width="56" height="17.0359" fill="white"/>
</clipPath>
</defs>
</svg>
